<?xml version="1.0" standalone="no"?>
<!DOCTYPE svg PUBLIC "-//W3C//DTD SVG 20010904//EN"
 "http://www.w3.org/TR/2001/REC-SVG-20010904/DTD/svg10.dtd">
<svg version="1.0" xmlns="http://www.w3.org/2000/svg"
 width="512.000000pt" height="512.000000pt" viewBox="0 0 512.000000 512.000000"
 preserveAspectRatio="xMidYMid meet">
<metadata>
Created by potrace 1.14, written by Peter Selinger 2001-2017
</metadata>
<g transform="translate(0.000000,512.000000) scale(0.100000,-0.100000)"
fill="#000000" stroke="none">
<path d="M351 4854 c-120 -20 -225 -93 -290 -200 -65 -107 -62 -16 -58 -1685
1 -833 6 -1527 10 -1544 14 -53 76 -155 120 -196 47 -45 117 -84 186 -105 37
-11 193 -14 835 -14 433 0 792 -2 796 -5 11 -7 -22 -131 -53 -199 -15 -32 -51
-92 -82 -135 -89 -127 -105 -179 -107 -336 -1 -117 0 -121 26 -151 l23 -28
792 0 c436 -1 801 2 811 6 43 16 54 53 52 175 -1 147 -18 201 -99 320 -89 132
-123 205 -142 310 l-8 43 791 1 c435 0 800 2 810 4 152 29 278 135 332 280 18
48 19 112 22 1569 3 1657 5 1583 -53 1682 -59 100 -169 183 -274 205 -78 17
-4341 19 -4440 3z"/>
</g>
</svg>
